<?xml version="1.0" standalone="no"?>
<!DOCTYPE svg PUBLIC "-//W3C//DTD SVG 20010904//EN"
 "http://www.w3.org/TR/2001/REC-SVG-20010904/DTD/svg10.dtd">
<svg version="1.0" xmlns="http://www.w3.org/2000/svg"
 width="700.000000pt" height="700.000000pt" viewBox="0 0 700.000000 700.000000"
 preserveAspectRatio="xMidYMid meet">
<metadata>
Created by potrace 1.11, written by Peter Selinger 2001-2013
</metadata>
<g transform="translate(0.000000,700.000000) scale(0.100000,-0.100000)"
fill="#000000" stroke="none">
<path d="M610 6520 c-4 -3 -11 -259 -14 -570 -4 -311 -9 -603 -10 -650 -7
-214 -18 -509 -21 -550 -2 -25 -6 -108 -9 -185 -4 -77 -8 -169 -11 -205 -4
-59 -13 -208 -20 -320 -3 -59 -15 -223 -20 -280 -2 -25 -7 -79 -10 -120 -3
-41 -8 -95 -10 -120 -3 -25 -7 -74 -10 -110 -6 -75 -9 -104 -30 -295 -25 -233
-49 -429 -64 -525 -5 -36 -12 -87 -16 -115 -12 -107 -80 -526 -100 -625 -3
-14 -7 -37 -10 -52 -3 -16 -12 -56 -20 -90 -8 -35 -16 -74 -19 -88 -2 -14 -12
-56 -21 -95 -9 -38 -18 -77 -20 -86 -10 -48 -69 -256 -93 -332 l-29 -88 95
-107 c52 -59 129 -145 172 -192 42 -47 94 -105 116 -130 21 -25 59 -67 84 -93
l45 -48 1100 5 c605 3 1750 8 2545 12 795 3 1613 7 1819 8 l373 2 91 94 c49
52 145 152 213 222 68 70 143 149 168 176 l45 48 -35 109 c-48 153 -121 445
-158 635 -3 14 -7 34 -9 45 -2 11 -7 36 -11 55 -3 19 -8 46 -11 60 -8 38 -54
320 -60 365 -4 22 -10 65 -15 95 -5 30 -12 80 -15 110 -3 30 -8 62 -10 70 -2
8 -7 44 -10 80 -4 36 -8 72 -10 80 -1 8 -6 49 -10 90 -4 41 -8 82 -10 90 -3
17 -17 141 -20 185 -5 48 -15 157 -20 195 -2 19 -7 73 -10 119 -4 47 -9 105
-11 130 -2 25 -6 79 -9 119 -3 40 -7 103 -10 140 -2 37 -7 105 -10 152 -3 47
-8 117 -10 155 -9 126 -16 288 -30 630 -18 436 -28 984 -28 1435 1 245 -3 357
-10 362 -6 4 -18 3 -28 -2 -9 -5 -20 -6 -24 -2 -7 8 -5712 10 -5725 2z m3820
-1424 c133 -8 169 -13 310 -37 106 -18 268 -58 315 -78 229 -97 308 -145 421
-256 203 -201 279 -437 251 -781 -17 -207 -83 -393 -204 -577 -146 -221 -387
-422 -678 -564 -136 -66 -369 -147 -518 -179 -76 -16 -229 -45 -267 -50 -25
-3 -56 -7 -70 -10 -79 -13 -213 -19 -435 -19 -241 0 -358 6 -438 24 -20 5 -39
6 -41 2 -2 -3 -38 -112 -80 -241 -41 -130 -89 -269 -105 -309 -97 -233 -240
-357 -456 -395 -16 -3 -40 -8 -52 -10 -139 -28 -526 -26 -703 4 -30 5 -68 12
-85 14 -109 19 -281 69 -385 113 -177 75 -288 168 -285 238 1 11 2 30 3 41 1
12 19 33 40 48 32 22 53 27 123 32 123 8 187 21 247 51 130 66 226 231 423
728 55 138 103 259 108 270 5 11 30 74 56 140 72 180 187 426 249 529 218 363
443 505 896 562 19 3 46 7 60 9 140 26 397 26 510 1 13 -3 35 -17 49 -31 20
-20 25 -34 24 -69 -2 -46 -15 -77 -115 -258 -61 -110 -123 -257 -196 -458 -59
-165 -232 -692 -232 -707 0 -9 47 -11 193 -9 169 3 204 7 292 30 411 108 711
457 761 886 10 85 11 246 2 290 -3 19 -9 51 -12 70 -15 101 -81 224 -165 308
-39 39 -151 107 -213 130 -68 25 -172 50 -248 60 -112 14 -518 6 -660 -13 -19
-2 -57 -7 -85 -11 -75 -9 -208 -31 -310 -50 -128 -23 -458 -118 -645 -184
-206 -73 -335 -25 -261 97 68 111 609 341 1111 472 221 58 296 73 520 105 58
9 134 18 170 22 36 3 81 7 100 9 19 2 98 7 175 10 77 4 141 8 142 9 4 4 297
-2 393 -8z"/>
</g>
</svg>
